<svg xmlns="http://www.w3.org/2000/svg" xmlns:xlink="http://www.w3.org/1999/xlink" viewBox="0,0,256,256" width="48px" height="48px"><g fill="none" fill-rule="nonzero" stroke="none" stroke-width="1" stroke-linecap="butt" stroke-linejoin="miter" stroke-miterlimit="10" stroke-dasharray="" stroke-dashoffset="0" font-family="none" font-weight="none" font-size="none" text-anchor="none" style="mix-blend-mode: normal"><g transform="scale(5.33333,5.33333)"><path d="M24,44c-11.028,0 -20,-8.972 -20,-20c0,-11.028 8.972,-20 20,-20c11.028,0 20,8.972 20,20c0,11.028 -8.972,20 -20,20z" fill="#040404"></path><path d="M34.476,24c0,-5.787 -4.69,-10.476 -10.476,-10.476c-5.786,0 -10.476,4.689 -10.476,10.476c0,5.787 4.689,10.476 10.476,10.476c5.787,0 10.476,-4.689 10.476,-10.476z" fill="#ffffff"></path><path d="M24,14c-5.459,0.141 -9.859,4.542 -10,10h10v-10zM24,34.002c5.459,-0.143 9.859,-4.544 10,-10.002h-10v10.002z" fill="#448aff"></path><path d="M15.57,13.194c-0.07,-0.493 -0.368,-0.909 -0.825,-1.116c-0.458,-0.208 -0.99,-0.13 -1.394,0.154c-0.033,0.025 -0.064,0.053 -0.094,0.078c0.067,-0.229 0.087,-0.461 0.03,-0.692c-0.054,-0.229 -0.174,-0.438 -0.343,-0.602c-0.342,-0.335 -0.862,-0.444 -1.31,-0.277c-0.21,0.08 -0.4,0.216 -0.541,0.39c-0.08,0.101 -0.159,0.199 -0.241,0.302c-0.419,0.522 -0.838,1.045 -1.256,1.567c-0.36,0.45 -0.718,0.9 -1.079,1.349c-0.024,0.029 -0.047,0.062 -0.07,0.09c-0.002,0 0.046,0.037 0.05,0.039c0.14,0.113 0.278,0.224 0.418,0.335c0.528,0.424 1.054,0.847 1.583,1.269c0.521,0.419 1.045,0.837 1.568,1.255c0.133,0.108 0.267,0.214 0.4,0.319c0.004,0.007 0.036,0.037 0.041,0.03c0.027,-0.033 0.053,-0.068 0.079,-0.099c0.359,-0.449 0.719,-0.896 1.076,-1.345c0.43,-0.539 0.86,-1.073 1.29,-1.611c0.222,-0.275 0.467,-0.539 0.572,-0.884c0.055,-0.181 0.065,-0.366 0.046,-0.551v0zM10.943,14.708c-0.218,-0.172 -0.435,-0.348 -0.652,-0.522c-0.083,-0.066 -0.166,-0.131 -0.249,-0.199c-0.003,-0.002 0.086,-0.109 0.091,-0.115c0.404,-0.508 0.81,-1.013 1.215,-1.519c0.107,-0.131 0.203,-0.275 0.367,-0.341c0.223,-0.094 0.487,-0.035 0.65,0.144c0.13,0.144 0.174,0.341 0.132,0.53c-0.049,0.169 -0.168,0.291 -0.273,0.424c-0.212,0.268 -0.427,0.534 -0.639,0.8c-0.215,0.264 -0.43,0.529 -0.642,0.798v0zM14.154,14.086c-0.138,0.171 -0.274,0.342 -0.412,0.514c-0.377,0.472 -0.755,0.944 -1.132,1.414c-0.002,0.002 -0.011,0.018 -0.015,0.016c-0.02,-0.016 -0.038,-0.033 -0.057,-0.048c-0.104,-0.082 -0.206,-0.163 -0.309,-0.245c-0.178,-0.144 -0.357,-0.288 -0.534,-0.43c0.342,-0.428 0.686,-0.855 1.027,-1.283c0.168,-0.21 0.334,-0.417 0.501,-0.627c0.119,-0.148 0.27,-0.255 0.468,-0.261c0.238,-0.006 0.446,0.131 0.547,0.344c0.085,0.208 0.056,0.431 -0.084,0.606zM36.51,11.01l-0.961,-0.892l-3.128,4.108l0.962,0.892l3.429,-1.57l-2.283,3.002l0.661,1.134l4.692,-2.154l-0.662,-1.136l-2.709,1.242l1.925,-2.526l-0.843,-1.051l-2.885,1.324zM22.47,7.709l1.098,3.466h0.865l1.096,-3.466l0.115,3.466l1.213,0.194l-0.173,-5.2l-1.558,-0.196l-1.125,3.662l-1.127,-3.662l-1.558,0.196l-0.173,5.2l1.212,-0.194z" fill="#cfd8dc"></path><path d="M24,35c-6.066,0 -11,-4.934 -11,-11c0,-6.066 4.934,-11 11,-11c6.066,0 11,4.934 11,11c0,6.066 -4.934,11 -11,11zM24,15c-4.963,0 -9,4.037 -9,9c0,4.963 4.037,9 9,9c4.962,0 9,-4.037 9,-9c0,-4.963 -4.038,-9 -9,-9z" fill="#ffffff"></path></g></g></svg>